<?xml version="1.0" encoding="UTF-8"?>
<svg xmlns="http://www.w3.org/2000/svg" xmlns:xlink="http://www.w3.org/1999/xlink" width="16pt" height="13pt" viewBox="0 0 16 13" version="1.1">
<g id="surface1">
<path style=" stroke:none;fill-rule:nonzero;fill:rgb(11.372549%,63.137255%,94.901961%);fill-opacity:1;" d="M 5.160156 12.796875 C 10.921875 12.796875 14.058594 7.941406 14.058594 3.757812 C 14.058594 3.617188 14.058594 3.472656 14.058594 3.351562 C 14.679688 2.90625 15.199219 2.335938 15.621094 1.707031 C 15.058594 1.949219 14.460938 2.132812 13.820312 2.214844 C 14.460938 1.828125 14.960938 1.199219 15.199219 0.445312 C 14.601562 0.8125 13.921875 1.078125 13.21875 1.21875 C 12.640625 0.589844 11.839844 0.203125 10.941406 0.203125 C 9.199219 0.203125 7.800781 1.625 7.800781 3.390625 C 7.800781 3.636719 7.820312 3.878906 7.878906 4.125 C 5.28125 3.980469 2.980469 2.722656 1.421875 0.792969 C 1.160156 1.257812 1 1.808594 1 2.375 C 1 3.472656 1.558594 4.449219 2.398438 5.015625 C 1.878906 4.996094 1.398438 4.855469 0.980469 4.609375 C 0.980469 4.632812 0.980469 4.632812 0.980469 4.652344 C 0.980469 6.195312 2.058594 7.476562 3.5 7.757812 C 3.238281 7.839844 2.960938 7.882812 2.679688 7.882812 C 2.480469 7.882812 2.28125 7.859375 2.101562 7.820312 C 2.5 9.078125 3.660156 9.992188 5.019531 10.035156 C 3.941406 10.886719 2.601562 11.394531 1.140625 11.394531 C 0.878906 11.394531 0.640625 11.375 0.398438 11.355469 C 1.761719 12.269531 3.398438 12.796875 5.160156 12.796875 "/>
</g>
</svg>
